<svg aria-hidden="true" style="position: absolute; width: 0; height: 0; overflow: hidden;"
    version="1.1" xmlns="http://www.w3.org/2000/svg" xmlns:xlink="http://www.w3.org/1999/xlink">
    <defs>
        <symbol id="icon-arrow" viewBox="0 0 22 32">
            <path
                d="M11.2 0c-6.176 0-11.2 4.99-11.2 11.123 0 7.709 11.211 20.877 11.211 20.877s11.189-13.547 11.189-20.877c0-6.133-5.024-11.123-11.2-11.123zM14.579 14.38c-0.932 0.925-2.155 1.388-3.379 1.388s-2.448-0.463-3.379-1.388c-1.863-1.85-1.863-4.861 0-6.712 0.902-0.896 2.103-1.39 3.379-1.39s2.477 0.494 3.379 1.39c1.863 1.851 1.863 4.862 0 6.712z"></path>
        </symbol>
        <symbol id="icon-ticket" viewBox="0 0 46 32">
            <path d="M5.156 0h-5.156v30.933h5.156v-30.933z"></path>
            <path d="M18.123 0h-5.156v30.933h5.156v-30.933z"></path>
            <path d="M25.934 0h-5.156v30.933h5.156v-30.933z"></path>
            <path d="M46.4 0h-7.655v30.933h7.655v-30.933z"></path>
            <path d="M10.311 0h-2.5v30.933h2.5v-30.933z"></path>
            <path d="M30.933 0h-2.5v30.933h2.5v-30.933z"></path>
            <path d="M36.089 0h-2.5v30.933h2.5v-30.933z"></path>
        </symbol>
        <symbol id="icon-close" viewBox="0 0 32 32">
            <path
                d="M1.646 32c-0.422 0-0.843-0.16-1.163-0.483-0.643-0.643-0.643-1.685 0-2.328l28.707-28.707c0.643-0.643 1.685-0.643 2.328 0s0.643 1.685 0 2.329l-28.707 28.706c-0.323 0.321-0.744 0.483-1.165 0.483z"></path>
            <path
                d="M30.355 32c-0.422 0-0.843-0.16-1.163-0.483l-28.709-28.706c-0.643-0.643-0.643-1.686 0-2.329s1.685-0.643 2.329 0l28.707 28.707c0.643 0.643 0.643 1.685 0 2.328-0.323 0.321-0.744 0.483-1.163 0.483z"></path>
        </symbol>
        <symbol id="hero-logo" viewBox="0 0 44 32">
<path d="M13.574 19.29c-0.409-1.135-1.249-1.703-2.522-1.703h-0.402v7.004h0.402c0.983 0 1.709-0.388 2.178-1.163 0.395-0.662 0.592-1.504 0.592-2.526-0.001-0.608-0.084-1.145-0.248-1.611zM6.683 19.374c0.409 1.135 1.249 1.703 2.521 1.703h0.402v-7.004h-0.402c-0.984 0-1.71 0.388-2.178 1.163-0.394 0.661-0.59 1.504-0.59 2.526 0 0.608 0.083 1.145 0.247 1.611zM0 2.889h5.343v1.855h-3.425v0.927h2.845v1.76h-2.845v0.938h3.425v1.855h-5.343v-7.335zM8.030 2.88h6.914l-3.457 7.493-3.456-7.493zM11.487 9.446l2.856-6.176h-5.702l2.846 6.176zM17.705 2.889h5.343v1.855h-3.425v0.927h2.845v1.76h-2.845v0.938h3.425v1.855h-5.343v-7.335zM26.337 10.213v-7.333h0.411l5.122 4.985v-4.985h0.39v7.335l-5.923-0.002zM37.856 10.224v-5.48h-2.772v-1.855h5.923v1.855h-2.772v5.48h-0.379zM3.151 15.536c0.464 0 0.833 0.070 1.107 0.211 0.617 0.306 1.033 0.931 1.033 1.654 0 0.012-0 0.023-0 0.034l0-0.002c0 0.003 0 0.006 0 0.010 0 0.35-0.102 0.676-0.278 0.951l0.004-0.007c-0.186 0.292-0.439 0.527-0.738 0.685l-0.011 0.005c0.39 0.14 0.716 0.381 0.955 0.691l0.004 0.005c0.243 0.299 0.39 0.685 0.39 1.106 0 0.004 0 0.008-0 0.012v-0.001c0 0.004 0 0.009 0 0.014 0 0.367-0.104 0.71-0.284 1l0.005-0.008c-0.184 0.302-0.435 0.546-0.733 0.717l-0.010 0.005c-0.149 0.082-0.321 0.147-0.503 0.187l-0.013 0.002c-0.189 0.042-0.443 0.063-0.758 0.063h-3.247v-7.335h3.077zM15.508 22.339c-0.552-0.481-0.824-1.203-0.817-2.166h1.718c-0.007 0.401 0.112 0.706 0.358 0.917s0.59 0.316 1.033 0.316c0.365 0 0.653-0.060 0.864-0.179s0.316-0.302 0.316-0.548c0-0.204-0.107-0.351-0.322-0.443-0.183-0.082-0.396-0.149-0.619-0.192l-0.019-0.003c-0.211-0.038-0.341-0.062-0.39-0.070-0.538-0.101-1.008-0.234-1.46-0.406l0.058 0.019c-0.394-0.149-0.727-0.383-0.988-0.682l-0.002-0.003c-0.267-0.309-0.4-0.717-0.4-1.222s0.133-0.937 0.4-1.291c0.267-0.355 0.624-0.62 1.070-0.796 0.466-0.179 0.961-0.269 1.46-0.263 0.639 0 1.193 0.119 1.66 0.358s0.834 0.601 1.101 1.085c0.124 0.205 0.206 0.432 0.243 0.669 0.028 0.208 0.042 0.417 0.042 0.627h-1.718c0-0.38-0.102-0.659-0.306-0.838s-0.52-0.269-0.948-0.269c-0.344 0-0.611 0.060-0.801 0.179s-0.285 0.281-0.285 0.485c0 0.225 0.127 0.39 0.38 0.495 0.269 0.111 0.59 0.209 0.922 0.278l0.037 0.006c0.633 0.126 1.126 0.247 1.481 0.364 0.369 0.124 0.681 0.337 0.92 0.614l0.002 0.003c0.26 0.295 0.39 0.71 0.39 1.244 0 0.506-0.141 0.941-0.421 1.307s-0.652 0.644-1.112 0.838c-0.473 0.196-0.98 0.294-1.491 0.29-1.019-0.001-1.804-0.243-2.356-0.724zM25.209 22.871v-5.48h-2.772v-1.854h5.923v1.855h-2.772v5.48h-0.38zM30.352 15.536h5.343v1.855h-3.425v0.928h2.846v1.76h-2.846v0.938h3.425v1.855h-5.343v-7.335zM43.61 22.871h-5.638v-7.335h2.856c0.611 0 1.11 0.109 1.497 0.326 0.372 0.205 0.672 0.499 0.879 0.854l0.006 0.011c0.199 0.34 0.316 0.749 0.316 1.185 0 0.010-0 0.019-0 0.029v-0.001c0 0.007 0 0.014 0 0.022 0 0.55-0.191 1.055-0.51 1.452l0.004-0.005c-0.315 0.412-0.753 0.715-1.258 0.855l-0.017 0.004 1.866 2.603zM38.361 16.179v3.783h2.708l-2.708-3.783zM38.361 22.481h4.511l-1.539-2.14-0.327 0.011h-2.645v2.129zM38.636 15.925l2.867 4.005c0.475-0.097 0.879-0.351 1.167-0.703l0.003-0.004c0.288-0.339 0.464-0.781 0.464-1.265 0-0.007-0-0.015-0-0.022v0.001c0-0.007 0-0.015 0-0.023 0-0.381-0.106-0.737-0.29-1.040l0.005 0.009c-0.191-0.316-0.464-0.565-0.79-0.722l-0.011-0.005c-0.309-0.155-0.713-0.232-1.212-0.232h-2.203z"></path>
</symbol>
<symbol id="polygon" viewBox="0 0 52 32">
<path fill="#939393" style="fill: var(--color1, #939393)" d="M25.981 30l-25.981-30h51.962l-25.981 30z"></path>
</symbol>
<symbol id="search-icon" viewBox="0 0 32 32">
<path fill="#939393" style="fill: var(--color1, #939393)" d="M4.024 4.024c2.595-2.595 6.045-4.024 9.715-4.024s7.12 1.429 9.715 4.024c2.595 2.595 4.024 6.045 4.024 9.715 0 3.355-1.195 6.526-3.383 9.029l7.63 7.63c0.366 0.366 0.366 0.961 0 1.327-0.183 0.183-0.423 0.275-0.664 0.275s-0.48-0.092-0.663-0.275l-7.63-7.63c-2.502 2.188-5.673 3.383-9.029 3.383-3.67 0-7.12-1.429-9.715-4.024s-4.024-6.045-4.024-9.715 1.429-7.12 4.024-9.715zM5.351 22.127c4.625 4.625 12.15 4.625 16.775 0s4.625-12.15 0-16.775c-2.313-2.313-5.35-3.469-8.388-3.469s-6.075 1.157-8.388 3.469c-4.625 4.625-4.625 12.15 0 16.775z"></path>
</symbol>
    </defs>
</svg>